<?xml version="1.0" standalone="no"?>
<!DOCTYPE svg PUBLIC "-//W3C//DTD SVG 20010904//EN"
 "http://www.w3.org/TR/2001/REC-SVG-20010904/DTD/svg10.dtd">
<svg version="1.0" xmlns="http://www.w3.org/2000/svg"
 width="576.000000pt" height="1280.000000pt" viewBox="0 0 576.000000 1280.000000"
 preserveAspectRatio="xMidYMid meet">

<g transform="translate(0.000000,1280.000000) scale(0.100000,-0.100000)"
fill="#000000" stroke="none">
<path d="M2630 8480 c-36 -4 -110 -19 -166 -33 -536 -136 -995 -550 -1214
-1096 -42 -103 -71 -200 -84 -273 -5 -28 -3 -36 7 -34 19 2 60 30 90 60 14 14
37 28 52 32 25 6 25 7 7 20 -51 36 -30 108 35 120 63 11 69 18 34 43 -47 33
-40 101 11 101 9 0 40 -14 69 -30 28 -17 53 -30 54 -28 2 2 -19 28 -47 58 -43
47 -49 59 -45 86 6 35 82 153 103 161 8 3 14 13 14 23 0 23 112 162 138 171
25 9 66 -11 70 -35 2 -10 -6 -28 -18 -41 l-22 -23 54 -74 c72 -96 73 -103 39
-128 -16 -11 -36 -20 -45 -20 -8 0 -39 29 -68 65 -28 36 -55 65 -59 65 -10 0
-26 -22 -33 -47 -5 -17 -1 -24 21 -35 15 -7 32 -23 38 -36 5 -12 15 -22 20
-22 25 0 65 -26 65 -43 0 -26 -85 -151 -114 -166 -22 -12 -23 -16 -13 -38 10
-23 8 -28 -23 -54 -39 -32 -34 -37 10 -14 17 9 31 23 31 33 1 9 2 24 3 32 2
20 91 110 109 110 7 0 38 30 68 68 119 149 284 294 414 364 163 89 299 137
453 163 69 12 102 24 71 26 -8 1 0 5 16 9 26 7 22 8 -22 9 -35 1 -53 5 -54 14
0 6 0 51 1 99 1 79 -1 88 -17 86 -35 -3 -53 2 -52 15 1 11 205 203 234 219 7
5 27 -6 50 -29 33 -32 39 -34 47 -20 10 19 43 23 54 6 3 -6 7 -28 8 -50 2 -30
12 -48 49 -87 l46 -50 48 25 c26 14 71 40 98 59 28 18 64 38 80 45 54 24 48
33 -43 61 -166 53 -269 68 -446 67 -88 -1 -190 -5 -226 -9z m-509 -427 c60
-124 88 -193 85 -207 -3 -12 -38 -46 -77 -76 -87 -67 -96 -73 -111 -64 -19 12
-178 353 -178 382 1 20 12 35 41 57 22 17 58 45 80 63 23 17 48 32 56 32 9 0
48 -69 104 -187z"/>
<path d="M1943 8127 c-28 -23 -52 -46 -52 -51 -1 -4 26 -64 59 -133 45 -94 63
-123 72 -116 57 43 108 87 108 93 0 19 -115 250 -124 249 -6 0 -34 -19 -63
-42z"/>
<path d="M2085 7821 c-6 -11 9 -23 19 -14 9 9 7 23 -3 23 -6 0 -12 -4 -16 -9z"/>
<path d="M3040 8199 c0 -22 10 -24 35 -5 17 12 17 13 -8 18 -21 4 -27 1 -27
-13z"/>
<path d="M2825 8160 c-4 -6 -4 -33 0 -61 l7 -50 24 16 c14 9 28 13 33 11 9 -6
25 70 17 83 -7 11 -74 12 -81 1z"/>
<path d="M4050 7960 c0 -5 -9 -10 -20 -10 -10 0 -27 -8 -37 -19 -10 -10 -31
-22 -48 -26 -27 -7 -28 -8 -10 -15 15 -7 16 -9 4 -9 -11 -1 -18 -14 -23 -40
-6 -41 -99 -189 -124 -198 -21 -8 -67 31 -67 57 0 12 -10 29 -22 37 -19 13
-23 13 -32 -6 -10 -18 -1 -31 76 -112 252 -263 381 -529 431 -888 17 -128 27
-147 59 -116 9 10 18 14 19 9 1 -5 7 -35 14 -67 13 -65 45 -107 81 -107 21 0
20 2 -10 17 -44 22 -65 71 -57 136 3 27 11 56 17 63 9 12 7 20 -10 38 -24 26
-22 54 4 76 16 14 20 67 6 88 -4 8 -19 19 -32 26 -13 6 -26 24 -30 41 -4 17
-19 59 -33 94 -44 108 -40 117 84 191 103 62 133 64 138 8 3 -34 -1 -40 -40
-69 -24 -17 -53 -35 -66 -40 -12 -5 -25 -15 -28 -24 -8 -21 26 -104 45 -109 9
-3 51 -12 94 -21 82 -18 97 -30 97 -81 0 -21 -16 -42 -67 -91 -56 -52 -64 -63
-45 -63 12 0 22 5 22 10 0 6 4 10 10 10 5 0 36 17 68 38 33 20 67 42 77 47 26
16 21 99 -16 246 -72 286 -191 528 -376 760 -75 95 -153 156 -153 119z m29
-150 c10 -5 35 -34 56 -64 37 -54 38 -57 33 -125 l-5 -71 29 25 c23 20 34 23
48 15 27 -14 100 -141 100 -172 0 -32 -23 -52 -50 -43 -15 5 -20 2 -20 -12 0
-48 -49 -56 -87 -15 l-26 27 23 -41 c26 -46 22 -89 -10 -99 -32 -10 -57 11
-100 90 -40 72 -40 75 -25 104 18 36 19 42 3 40 -45 -5 -66 5 -116 57 -46 47
-53 59 -47 82 7 27 137 197 158 205 18 8 17 8 36 -3z"/>
<path d="M3995 7715 c-85 -106 -84 -105 -40 -159 21 -26 48 -49 62 -52 79 -20
163 110 122 189 -16 30 -69 97 -77 97 -4 0 -34 -34 -67 -75z m102 -11 c29 -45
22 -92 -20 -130 -20 -19 -43 -34 -51 -34 -8 0 -26 14 -40 31 -29 35 -32 26 37
112 21 26 43 47 48 47 5 0 16 -12 26 -26z"/>
<path d="M4025 7644 c-22 -28 -26 -41 -18 -53 15 -23 33 -20 56 11 14 18 18
34 13 52 -9 35 -18 33 -51 -10z"/>
<path d="M4143 7492 c-40 -38 -73 -72 -73 -76 0 -10 17 -42 57 -105 25 -38 37
-50 43 -41 5 8 -5 33 -26 66 -40 62 -40 65 -14 89 26 23 43 15 71 -34 12 -23
26 -41 31 -41 15 0 8 30 -17 70 -30 48 -31 52 -4 76 20 18 21 18 39 -6 11 -14
25 -37 31 -52 11 -28 40 -39 38 -15 -1 21 -75 132 -90 134 -8 2 -47 -28 -86
-65z"/>
<path d="M1654 7793 c-22 -26 -45 -54 -52 -61 -6 -8 -17 -22 -22 -32 -17 -32
10 -35 35 -4 25 32 13 40 100 -68 25 -32 50 -58 56 -58 20 0 7 41 -29 87 -76
96 -77 97 -51 132 16 22 20 34 12 42 -7 7 -22 -4 -49 -38z"/>
<path d="M2720 7799 c-151 -24 -312 -85 -426 -162 -76 -51 -154 -122 -154
-142 0 -21 118 -140 140 -141 11 -1 18 1 15 4 -5 5 36 65 65 93 58 57 293 179
346 179 8 0 14 5 14 10 0 6 5 10 11 10 13 0 179 130 179 141 0 20 -88 24 -190
8z"/>
<path d="M1528 7622 c-21 -25 -78 -117 -78 -126 0 -13 142 -156 154 -156 12 0
96 123 96 139 0 28 -22 15 -49 -29 -33 -54 -49 -60 -74 -32 -22 24 -22 23 13
79 33 52 36 63 17 63 -7 0 -21 -16 -31 -35 -30 -56 -45 -64 -67 -36 -18 22
-18 25 -3 49 40 62 54 91 46 96 -5 3 -16 -2 -24 -12z"/>
<path d="M2790 7619 c-177 -20 -320 -83 -437 -194 -55 -51 -36 -49 29 4 297
241 778 223 1062 -38 42 -39 46 -41 28 -14 -51 72 -190 167 -297 202 -116 38
-267 54 -385 40z"/>
<path d="M5189 7527 c-52 -35 -72 -74 -125 -234 -47 -145 -48 -151 -52 -295
-4 -151 1 -196 18 -168 5 8 12 11 16 8 3 -4 14 1 24 10 15 14 23 53 39 189 11
95 25 180 31 190 9 15 10 13 6 -13 -13 -77 -18 -312 -8 -345 6 -19 14 -74 18
-124 6 -79 8 -86 16 -57 l9 34 49 -7 49 -7 -3 94 c-12 332 -20 473 -27 476 -5
2 -7 8 -3 13 9 16 13 89 4 89 -5 0 -10 -3 -13 -7 -2 -5 -2 -2 0 5 1 8 3 21 3
29 0 23 48 -52 72 -111 103 -260 161 -664 162 -1126 1 -353 -25 -577 -81 -704
-17 -38 -17 -39 6 -57 26 -22 44 -24 72 -9 23 13 65 78 75 117 l8 28 6 -25 c9
-35 37 120 51 275 5 66 13 152 17 190 12 114 -4 507 -28 701 -40 331 -113 623
-172 694 -63 75 -81 90 -111 90 -17 0 -39 -8 -50 -17 -19 -18 -20 -18 -3 14 9
18 28 40 42 49 19 13 22 19 12 25 -26 17 -94 9 -129 -14z"/>
<path d="M457 7533 c-4 -3 2 -13 14 -21 29 -20 77 -134 49 -117 -5 3 -10 15
-10 25 0 27 -27 50 -60 50 -28 0 -61 -25 -100 -76 -65 -86 -127 -331 -165
-657 -20 -167 -42 -548 -38 -647 13 -318 52 -634 73 -599 7 10 12 6 20 -16 16
-42 60 -85 87 -85 13 0 32 9 42 19 19 19 19 20 1 69 -144 380 -84 1462 104
1852 l31 65 5 -50 c6 -57 -6 -427 -18 -554 l-8 -83 48 6 c44 6 48 5 61 -20 13
-25 14 -20 20 70 4 53 12 106 18 118 12 22 8 188 -7 303 -5 35 -3 47 4 40 6
-5 20 -91 31 -190 15 -124 26 -184 36 -194 11 -11 15 -12 15 -2 0 9 5 7 17 -4
30 -31 37 6 29 169 -8 193 -16 228 -72 340 -59 115 -85 154 -121 177 -27 18
-93 26 -106 12z"/>
<path d="M3540 7530 c-8 -5 -29 -10 -47 -10 -17 0 -35 -5 -38 -10 -4 -6 -11
-7 -17 -4 -7 5 -9 1 -5 -9 4 -11 2 -14 -9 -10 -26 10 -14 -15 38 -76 l52 -62
68 68 c57 56 65 69 55 82 -31 40 -66 51 -97 31z"/>
<path d="M2195 7388 c32 -35 62 -67 67 -72 4 -5 10 -7 13 -5 6 6 -117 139
-129 139 -5 0 17 -28 49 -62z"/>
<path d="M3563 7380 c-33 -33 -58 -62 -54 -65 4 -2 36 25 71 60 81 82 66 85
-17 5z"/>
<path d="M3089 7393 c-19 -6 -60 -19 -92 -28 -63 -19 -64 -26 -2 -45 53 -17
151 -67 196 -102 44 -34 53 -34 80 -7 11 11 23 18 26 15 7 -7 -49 -55 -64 -56
-6 0 -15 5 -19 11 -3 6 -34 29 -67 50 -190 123 -420 110 -614 -32 -32 -24 -60
-45 -62 -46 -2 -2 -1 -6 2 -9 4 -4 27 10 51 30 56 46 153 92 225 107 30 6 98
9 150 7 114 -6 182 -29 278 -95 l66 -45 51 53 c28 29 43 47 33 39 -29 -21 -32
-2 -4 21 15 11 27 26 27 34 0 14 -74 72 -127 99 -35 18 -81 17 -134 -1z"/>
<path d="M1385 7380 c-9 -15 6 -31 64 -65 28 -16 49 -34 47 -40 -1 -5 -37 -15
-79 -21 -128 -17 -128 -38 -2 -116 72 -45 105 -54 105 -28 0 6 -26 27 -57 47
-32 20 -60 38 -62 39 -11 9 14 18 86 30 72 13 97 26 90 49 -4 10 -166 115
-178 115 -4 0 -11 -5 -14 -10z"/>
<path d="M4300 7192 c-46 -30 -76 -55 -78 -67 -3 -26 40 -137 56 -143 18 -6
15 20 -8 74 -12 26 -17 50 -13 54 4 4 41 28 81 53 68 44 93 78 55 76 -10 0
-52 -21 -93 -47z"/>
<path d="M2475 7200 c-3 -5 1 -10 9 -10 9 0 16 5 16 10 0 6 -4 10 -9 10 -6 0
-13 -4 -16 -10z"/>
<path d="M1492 7192 c-8 -6 0 -15 28 -31 42 -23 53 -54 28 -80 -7 -6 -13 -26
-13 -44 0 -24 -7 -36 -34 -54 -38 -26 -34 -30 8 -8 31 15 41 33 41 70 0 12 7
28 15 35 25 21 18 57 -15 82 -22 16 -27 24 -18 30 9 5 7 8 -7 8 -11 0 -26 -4
-33 -8z"/>
<path d="M2766 7169 c-62 -15 -176 -75 -176 -94 0 -16 84 -105 98 -105 7 0 30
9 52 20 51 26 180 28 241 4 l41 -17 49 54 c27 30 48 58 46 63 -5 16 -109 65
-160 76 -57 12 -137 12 -191 -1z"/>
<path d="M1390 7102 c19 -16 37 -28 40 -25 5 5 -23 28 -55 45 -11 6 -4 -3 15
-20z"/>
<path d="M1295 7080 c-25 -28 -58 -150 -44 -166 15 -18 170 -76 187 -69 22 8
9 28 -34 50 -61 32 -44 73 39 96 39 10 57 33 40 50 -7 7 -23 5 -48 -5 -48 -21
-55 -20 -55 4 0 23 -33 60 -53 60 -8 0 -22 -9 -32 -20z m54 -48 c14 -27 -7
-102 -28 -102 -34 0 -44 16 -36 56 11 62 43 85 64 46z"/>
<path d="M3062 7003 c-18 -21 -32 -42 -32 -46 0 -5 16 10 35 33 19 23 35 44
35 46 0 9 -9 2 -38 -33z"/>
<path d="M2788 6993 c-31 -8 -93 -42 -78 -43 8 0 28 7 45 16 16 8 55 19 85 23
l55 9 -45 0 c-25 0 -53 -2 -62 -5z"/>
<path d="M1425 6943 c-3 -10 -3 -19 2 -20 28 -10 73 -45 73 -58 0 -8 -9 -23
-19 -32 -14 -12 -16 -19 -8 -28 9 -9 15 -3 25 27 12 34 11 43 -3 64 -8 13 -22
24 -30 24 -20 0 -30 21 -14 31 11 7 11 9 -2 9 -9 0 -20 -8 -24 -17z"/>
<path d="M4280 6941 c0 -13 9 -21 29 -26 27 -6 31 -12 39 -58 8 -47 6 -54 -15
-78 -13 -14 -23 -30 -23 -36 0 -30 27 -19 93 38 95 82 106 95 100 119 -6 21
-8 22 -106 45 -93 21 -117 20 -117 -4z m174 -50 c8 -12 -53 -63 -68 -58 -6 2
-12 18 -14 35 -3 31 -2 32 37 32 22 0 42 -4 45 -9z"/>
<path d="M2886 6878 c12 -5 31 -27 43 -49 27 -47 34 -50 19 -9 -10 31 -52 71
-72 69 -6 0 -1 -5 10 -11z"/>
<path d="M1270 6841 c0 -10 30 -24 37 -17 3 3 2 9 -2 15 -8 13 -35 15 -35 2z"/>
<path d="M2730 6834 c0 -8 5 -12 10 -9 6 3 10 10 10 16 0 5 -4 9 -10 9 -5 0
-10 -7 -10 -16z"/>
<path d="M1350 6820 c0 -5 7 -10 16 -10 8 0 12 5 9 10 -3 6 -10 10 -16 10 -5
0 -9 -4 -9 -10z"/>
<path d="M1226 6798 c-14 -67 -16 -156 -4 -166 17 -13 162 -36 182 -29 9 4 17
28 21 74 11 105 11 106 -1 110 -7 2 -15 -21 -20 -64 l-9 -68 -34 -3 -34 -3 5
64 c3 36 2 71 -3 78 -8 14 -13 -2 -23 -75 -6 -48 -17 -60 -45 -51 -19 6 -20
11 -14 81 4 52 3 74 -5 74 -7 0 -14 -10 -16 -22z"/>
<path d="M2030 6775 c-22 -24 -23 -27 -10 -81 l14 -57 -40 -34 c-78 -69 -114
-107 -114 -119 0 -19 20 -28 33 -15 6 6 19 11 28 11 15 0 18 -13 22 -87 8
-143 16 -208 42 -339 14 -68 25 -157 25 -199 0 -68 -2 -76 -25 -91 -14 -9 -25
-20 -25 -25 0 -14 93 -10 123 5 26 14 27 14 27 -7 0 -13 -7 -33 -17 -46 -15
-22 -15 -25 2 -37 15 -11 22 -11 46 2 38 19 52 49 45 93 -4 20 -11 70 -16 111
-5 41 -14 85 -20 98 -16 36 -38 221 -44 373 -6 124 -4 140 15 187 27 64 18
113 -21 122 -23 6 -25 11 -25 63 0 43 -5 61 -21 77 l-20 20 -24 -25z"/>
<path d="M1480 6723 c-1 -64 -17 -123 -36 -138 -16 -12 -17 -14 -3 -15 9 0 22
6 28 14 12 15 28 176 17 176 -3 0 -6 -17 -6 -37z"/>
<path d="M2940 6662 c-8 -34 -22 -71 -32 -82 -27 -28 -24 -60 6 -60 39 0 47
21 44 117 l-3 88 -15 -63z"/>
<path d="M4420 6709 c0 -5 5 -7 10 -4 6 3 10 8 10 11 0 2 -4 4 -10 4 -5 0 -10
-5 -10 -11z"/>
<path d="M2269 6694 c-7 -9 -15 -46 -17 -83 -3 -48 -9 -70 -22 -81 -14 -11
-19 -33 -22 -90 -3 -71 -2 -75 20 -78 25 -4 28 -22 8 -60 -12 -24 -46 -142
-46 -162 0 -4 10 -10 21 -13 22 -6 22 -9 17 -184 -5 -206 -3 -223 21 -223 16
0 19 15 25 138 10 191 16 243 33 249 22 9 26 -1 39 -105 7 -53 19 -132 26
-174 13 -75 15 -79 50 -98 21 -11 40 -20 43 -20 3 0 5 16 3 34 -1 27 8 50 44
103 34 49 50 84 57 127 18 98 26 88 36 -44 4 -47 8 -115 10 -152 1 -38 4 -70
7 -73 10 -11 58 7 58 21 0 8 -5 14 -10 14 -25 0 -30 54 -19 215 7 108 7 181 1
216 -6 30 -7 58 -4 64 15 24 7 91 -15 134 -17 30 -22 52 -18 72 14 65 -50 96
-69 34 -18 -59 -37 -95 -56 -105 -17 -9 -19 -18 -14 -73 5 -45 12 -66 27 -78
19 -16 20 -24 14 -150 -5 -95 -11 -137 -20 -144 -8 -5 -16 -27 -20 -47 -7 -43
-53 -143 -60 -131 -3 5 -1 29 3 55 7 34 5 63 -6 105 -8 32 -18 89 -21 127 -5
59 -4 71 12 82 20 15 18 30 -14 149 -19 68 -19 70 -1 86 14 13 18 31 18 94 1
42 -3 85 -8 94 -5 9 -16 39 -25 68 -16 51 -56 103 -80 103 -7 0 -19 -7 -26
-16z m-15 -289 c3 -9 0 -15 -9 -15 -8 0 -15 7 -15 15 0 8 4 15 9 15 5 0 11 -7
15 -15z"/>
<path d="M3587 6693 c-19 -5 -19 -29 -2 -95 6 -22 1 -34 -20 -59 -25 -30 -26
-36 -19 -98 5 -36 7 -77 6 -91 -1 -14 -3 -74 -5 -135 -2 -60 -7 -148 -12 -194
-6 -70 -5 -86 7 -95 22 -16 31 -157 12 -185 -32 -45 -54 -21 -54 60 0 27 -7
66 -15 86 -22 53 -20 120 5 133 22 12 26 60 11 139 -7 34 -5 53 10 87 18 39
18 50 8 115 -10 60 -18 77 -46 105 -33 33 -33 35 -18 64 14 27 14 33 0 60 -20
38 -60 50 -80 24 -25 -33 -16 -85 22 -122 19 -19 16 -31 -11 -41 -19 -8 -24
-19 -30 -66 -4 -34 -2 -64 5 -76 12 -23 4 -109 -17 -179 -18 -60 -18 -65 10
-79 34 -19 43 -45 61 -177 l16 -116 -25 -27 c-33 -34 -33 -41 2 -41 45 0 55
12 47 59 -4 26 -3 41 3 41 16 0 25 -38 18 -76 l-7 -34 63 7 c35 3 65 7 66 9 2
1 4 24 3 51 0 49 27 296 36 323 8 23 32 -38 33 -82 0 -49 9 -68 30 -68 19 0
24 -16 35 -117 6 -48 4 -66 -9 -84 -23 -34 -20 -39 23 -39 l40 0 -5 68 c-2 37
-6 103 -9 147 -2 44 -11 123 -19 175 -9 52 -17 123 -19 158 -3 58 -1 65 23 85
14 12 43 31 63 42 20 11 37 26 37 35 0 8 -27 51 -60 95 -45 60 -69 83 -97 92
-46 16 -45 15 -49 58 -4 56 -21 70 -67 58z m183 -270 c25 -22 25 -31 -2 -60
-31 -33 -38 -29 -38 20 0 60 8 67 40 40z m-270 -127 c0 -8 -5 -27 -11 -43 -10
-26 -11 -26 -21 -9 -7 13 -7 25 1 42 12 26 31 32 31 10z"/>
<path d="M2773 6663 c2 -30 -29 -56 -42 -34 -15 23 -24 -6 -17 -54 10 -64 56
-75 56 -14 0 18 4 28 10 24 6 -3 10 -19 10 -35 0 -23 5 -31 25 -36 39 -10 55
1 55 40 0 19 4 37 9 40 14 9 19 65 7 75 -6 4 -34 11 -63 14 -51 6 -52 5 -50
-20z"/>
<path d="M4354 6682 c-39 -25 -46 -124 -13 -166 26 -32 63 -34 83 -3 9 12 20
46 26 75 13 57 24 70 45 52 22 -18 18 -70 -7 -97 -17 -18 -19 -26 -10 -35 10
-10 17 -7 35 10 18 18 22 34 21 78 0 66 -26 101 -68 90 -21 -5 -29 -18 -46
-76 -17 -56 -25 -70 -41 -70 -41 0 -47 80 -8 108 34 24 17 57 -17 34z"/>
<path d="M400 6667 c0 -7 5 -18 11 -24 7 -7 15 -29 19 -50 l8 -38 1 37 c0 20
-3 48 -9 62 -10 27 -30 36 -30 13z"/>
<path d="M5336 6649 c-10 -51 -6 -79 6 -39 5 19 15 38 20 41 11 7 2 29 -11 29
-5 0 -11 -14 -15 -31z"/>
<path d="M1272 6553 c9 -10 18 -27 21 -38 4 -16 5 -15 6 6 1 25 -15 49 -33 49
-5 0 -2 -8 6 -17z"/>
<path d="M358 6538 c-9 -16 -13 -65 -13 -153 1 -148 12 -183 68 -210 l33 -16
-12 -59 c-9 -43 -9 -85 -3 -152 19 -184 20 -214 12 -300 -5 -49 -6 -85 -1 -80
12 12 57 141 73 212 9 36 20 81 25 102 18 66 39 241 44 373 5 126 5 128 -9 75
-16 -64 -35 -82 -75 -70 -23 7 -30 5 -33 -8 -4 -15 -5 -14 -6 1 -1 11 -6 15
-12 11 -8 -5 -9 16 -4 77 8 88 -4 102 -17 21 -5 -33 -6 -21 -3 40 5 103 -7
158 -35 158 -11 0 -25 -10 -32 -22z"/>
<path d="M5350 6534 c-6 -14 -11 -55 -11 -92 -2 -62 -2 -64 -10 -27 -5 28 -7
11 -5 -57 2 -54 0 -96 -3 -94 -3 2 -26 0 -51 -4 -25 -5 -49 -5 -54 0 -5 5 -15
32 -22 62 -14 51 -14 49 -10 -72 6 -143 24 -316 37 -345 5 -11 19 -67 32 -125
13 -58 36 -130 50 -160 l26 -55 -5 100 c-3 55 -7 106 -10 113 -2 7 3 38 11 69
16 62 19 202 6 270 -8 40 -7 42 24 59 44 23 54 44 64 122 9 69 0 229 -13 250
-13 21 -46 13 -56 -14z"/>
<path d="M1215 6528 c-10 -26 10 -201 23 -206 8 -2 12 10 12 41 l0 45 53 6
c121 15 127 17 127 37 0 19 -6 20 -92 17 l-93 -3 -3 38 c-3 36 -18 50 -27 25z"/>
<path d="M1454 6487 c35 -29 32 -54 -12 -77 -27 -15 -30 -19 -15 -25 16 -6 14
-8 -9 -21 -34 -18 -36 -26 -5 -19 15 4 28 1 36 -9 8 -9 20 -16 27 -16 8 0 17
-12 20 -26 5 -19 -1 -36 -23 -67 -47 -66 -48 -69 -21 -62 24 6 88 -27 88 -45
0 -6 -9 -18 -19 -27 -19 -16 -19 -17 12 -32 37 -18 46 -45 23 -70 -9 -10 -61
-39 -115 -65 -108 -52 -136 -54 -147 -9 -9 36 4 53 65 86 59 32 63 45 8 22
-105 -44 -150 10 -87 105 37 55 37 62 4 50 -40 -16 -53 -12 -72 20 -17 28 -20
28 -40 14 -29 -20 -28 -53 3 -182 36 -148 119 -346 204 -487 88 -148 253 -353
329 -411 l43 -33 37 21 c20 11 49 29 64 39 47 34 75 22 53 -22 -31 -59 -7 -80
26 -23 25 41 23 59 -7 83 -23 18 -24 21 -8 22 58 3 59 4 68 44 13 52 14 54 34
27 l17 -22 32 22 c18 13 33 26 33 30 0 3 -19 24 -42 45 -313 283 -454 555
-533 1027 -5 29 -9 36 -16 25 -6 -10 -9 -5 -9 19 0 35 -29 72 -57 72 -14 0
-11 -5 11 -23z m154 -594 c27 -23 90 -144 85 -161 -3 -6 4 -15 15 -20 11 -4
42 -38 67 -77 38 -56 46 -74 39 -92 -13 -33 -153 -172 -181 -179 -30 -8 -42 3
-93 81 -32 50 -41 72 -38 95 4 25 2 29 -13 25 -22 -7 -49 20 -49 51 0 25 7 34
84 102 l49 43 -21 38 c-21 37 -29 91 -15 104 12 13 51 7 71 -10z"/>
<path d="M1550 5868 c0 -7 11 -33 25 -57 14 -23 25 -48 25 -55 0 -6 -29 -35
-65 -65 -68 -58 -82 -78 -66 -94 9 -9 26 2 148 107 31 26 29 43 -9 112 -32 56
-58 80 -58 52z"/>
<path d="M1660 5679 c0 -7 16 -34 36 -61 34 -47 34 -51 19 -74 -22 -34 -39
-30 -72 16 -15 22 -34 40 -40 40 -20 0 -16 -13 17 -56 32 -42 37 -63 18 -82
-20 -20 -33 -14 -67 33 -30 41 -51 57 -51 37 0 -12 78 -130 92 -138 12 -8 158
138 158 157 0 18 -85 138 -97 138 -7 1 -13 -4 -13 -10z"/>
<path d="M1612 5653 c-10 -4 -7 -9 8 -20 12 -8 24 -12 28 -9 9 10 -21 34 -36
29z"/>
<path d="M1545 5600 c-4 -7 0 -19 9 -28 13 -14 16 -14 16 -2 0 25 -16 44 -25
30z"/>
<path d="M4448 6473 c7 -3 16 -2 19 1 4 3 -2 6 -13 5 -11 0 -14 -3 -6 -6z"/>
<path d="M2892 6407 c-28 -13 -38 -51 -23 -92 15 -43 15 -43 -23 -59 -42 -18
-75 -78 -83 -152 -5 -44 -2 -55 16 -73 19 -19 21 -29 16 -64 -9 -50 -13 -56
-25 -37 -15 24 -18 10 -20 -90 -6 -215 2 -282 32 -251 10 11 10 14 1 18 -18 7
-18 146 -1 141 15 -5 14 -3 16 -122 l2 -88 33 6 c17 4 47 9 65 13 35 6 45 33
12 33 -21 0 -24 8 -14 34 14 37 57 10 58 -38 1 -14 14 -22 51 -32 76 -20 82
-6 86 191 1 44 -2 88 -6 98 -4 10 -5 34 -2 53 7 41 -16 86 -39 77 -8 -3 -14 1
-14 11 0 9 7 16 15 16 9 0 15 9 15 23 0 13 5 28 10 33 12 12 -32 173 -52 185
-7 5 -20 9 -29 9 -29 0 -41 26 -34 69 12 70 -16 109 -63 88z m-102 -572 c0
-30 -4 -55 -10 -55 -5 0 -10 25 -10 55 0 30 5 55 10 55 6 0 10 -25 10 -55z
m140 -15 c-20 -13 -50 -13 -50 0 0 6 15 10 33 10 24 0 28 -3 17 -10z m10 -30
c0 -5 -7 -10 -15 -10 -8 0 -15 5 -15 10 0 6 7 10 15 10 8 0 15 -4 15 -10z
m-40 -20 c0 -5 -5 -10 -11 -10 -5 0 -7 5 -4 10 3 6 8 10 11 10 2 0 4 -4 4 -10z
m40 -40 c0 -24 -26 -38 -42 -22 -8 8 -8 15 2 27 18 21 40 19 40 -5z m0 -60 c0
-5 -9 -10 -20 -10 -11 0 -20 5 -20 10 0 6 9 10 20 10 11 0 20 -4 20 -10z"/>
<path d="M3228 6398 c-10 -8 -18 -34 -20 -66 -3 -29 -12 -60 -22 -70 -13 -16
-15 -27 -7 -68 6 -30 6 -66 1 -89 -5 -21 -7 -112 -4 -202 4 -158 4 -163 -16
-163 -29 0 -25 -27 6 -34 35 -9 37 -5 40 57 8 153 17 228 28 224 6 -2 14 -29
17 -60 5 -46 13 -64 43 -97 35 -38 38 -48 40 -97 1 -27 16 -32 30 -11 6 11 2
29 -12 60 -12 24 -22 54 -22 67 0 12 -6 32 -14 44 -8 13 -17 66 -21 131 -7
102 -6 110 13 125 13 10 21 32 25 63 4 40 1 50 -19 67 -13 11 -26 33 -29 48
-16 79 -28 93 -57 71z"/>
<path d="M1300 6354 c0 -15 -10 -34 -22 -45 -25 -20 -10 -26 23 -9 13 8 19 21
19 45 0 19 -4 35 -10 35 -5 0 -10 -12 -10 -26z"/>
<path d="M4612 6353 c-1 -7 -7 -13 -12 -13 -6 0 -26 -10 -45 -22 -34 -23 -34
-23 -28 -84 4 -48 1 -70 -15 -106 -24 -55 -70 -85 -102 -68 -17 9 -15 3 10
-37 36 -56 39 -116 11 -179 -27 -60 -66 -87 -116 -81 -22 3 -48 8 -57 12 -11
4 -18 3 -18 -4 0 -6 11 -11 25 -11 31 0 65 -50 65 -95 -1 -43 -34 -110 -64
-130 -33 -22 -92 -13 -101 14 -5 17 -43 36 -53 27 -2 -2 9 -46 24 -96 25 -84
27 -95 13 -119 -22 -39 -58 -38 -129 3 -34 20 -63 36 -64 36 -2 0 -6 -9 -9
-19 -3 -13 3 -22 20 -30 62 -28 61 -131 -1 -188 -57 -52 -139 -40 -141 20 0
18 -11 33 -34 49 -47 32 -58 75 -33 132 19 41 76 96 100 96 7 0 19 16 27 36
14 35 16 36 54 30 34 -5 42 -3 55 16 11 16 12 26 5 40 -13 25 5 75 30 83 10 3
22 24 29 49 14 52 61 111 96 120 23 6 24 9 19 61 -8 72 29 152 82 181 19 10
35 20 35 22 0 1 -10 16 -21 32 -19 25 -21 38 -16 87 4 40 3 53 -4 41 -5 -9
-10 -44 -10 -78 -1 -33 -4 -60 -8 -60 -4 0 -29 -14 -56 -32 -34 -23 -53 -45
-68 -77 -123 -284 -210 -417 -379 -579 -203 -194 -476 -322 -746 -347 l-73 -7
3 -32 3 -31 83 -3 c45 -2 82 -6 82 -10 0 -4 -27 -23 -60 -42 -33 -19 -60 -37
-60 -40 0 -3 11 -41 26 -84 14 -43 24 -82 22 -87 -2 -5 -31 16 -66 46 -35 30
-66 55 -69 55 -3 0 -34 -23 -70 -52 -72 -57 -75 -52 -27 44 13 26 24 54 24 63
0 8 -26 32 -57 52 l-56 38 75 3 c86 3 85 2 95 94 6 62 -10 83 -22 28 -4 -16
-11 -33 -16 -36 -6 -3 -64 -1 -129 6 -116 12 -120 11 -164 -11 -25 -12 -46
-26 -46 -31 0 -4 -7 -8 -15 -8 -8 0 -15 -4 -15 -10 0 -5 18 -10 40 -10 48 0
51 -9 9 -34 -21 -13 -28 -23 -24 -34 12 -32 17 -72 9 -72 -4 0 -21 12 -36 27
l-28 27 -30 -29 c-36 -34 -47 -28 -26 14 22 42 20 49 -15 70 -35 21 -24 37 18
26 32 -8 43 7 43 57 0 52 -18 58 -26 8 -8 -48 -12 -51 -64 -52 -43 0 -50 -10
-22 -30 10 -7 21 -18 25 -24 8 -13 -115 -95 -277 -184 -22 -12 -46 -29 -54
-36 -11 -12 -11 -14 2 -14 9 0 16 -4 16 -8 0 -5 11 -14 24 -21 21 -12 26 -11
45 8 18 18 33 21 114 21 66 0 99 -4 114 -15 18 -13 22 -13 33 0 7 8 20 15 29
15 36 0 41 -20 41 -179 0 -138 -2 -160 -20 -188 -11 -18 -26 -33 -33 -33 -32
0 -37 24 -37 167 0 79 -2 143 -5 143 -3 0 -13 -4 -23 -9 -9 -5 -25 -12 -34
-15 -16 -5 -18 -19 -18 -107 0 -86 -3 -107 -22 -140 -12 -22 -29 -39 -38 -39
-34 0 -40 21 -40 151 0 117 -1 127 -19 132 -28 7 -31 1 -31 -67 0 -70 -23
-126 -74 -175 -63 -61 -162 -51 -206 21 l-18 30 -15 -28 c-21 -40 -52 -66 -73
-62 -16 3 -32 22 -70 84 -11 18 -13 17 -22 -7 -14 -34 -55 -79 -74 -79 -24 0
-38 22 -38 62 0 28 -4 38 -16 38 -15 0 -93 -45 -218 -125 -31 -20 -64 -39 -74
-42 -15 -6 -70 -41 -82 -53 -3 -3 -14 -10 -24 -16 -59 -32 -19 -40 254 -50
l175 -7 -1 42 c0 24 2 59 5 78 l6 35 1050 2 c1013 1 1051 2 1081 20 39 23 38
42 -2 110 -43 72 -54 70 -54 -6 0 -36 -5 -69 -12 -76 -20 -20 -45 -14 -63 15
l-18 27 -8 -22 c-5 -12 -16 -25 -24 -28 -17 -7 -55 21 -55 40 -1 32 -41 51
-86 40 -15 -4 -25 -16 -29 -35 -4 -16 -12 -32 -18 -36 -15 -9 -195 -16 -225
-8 -14 3 -29 19 -37 38 -14 33 -14 33 -30 -18 -13 -42 -59 -25 -70 26 -7 31
-33 43 -76 37 -17 -2 -30 -16 -43 -45 -30 -67 -76 -53 -76 22 0 42 80 296 101
321 15 19 48 18 70 -2 10 -9 37 -75 61 -147 l43 -132 5 138 c5 143 10 156 52
157 28 0 33 -19 38 -145 l5 -120 61 -3 60 -3 38 120 c39 123 57 151 94 151 30
0 47 -30 88 -154 20 -61 40 -115 45 -120 5 -6 9 41 9 110 0 155 2 159 103 159
82 0 119 -17 144 -66 l13 -24 0 26 c0 42 23 63 66 62 39 -1 73 -31 74 -65 0
-34 19 -27 30 11 12 45 15 48 56 55 42 8 83 -30 90 -81 10 -69 15 -70 41 -8
14 33 32 68 41 78 20 23 61 22 87 -3 17 -16 27 -19 46 -11 46 17 69 73 45 107
-14 18 -34 19 -358 24 l-343 5 60 34 c33 19 100 63 148 98 319 229 561 559
690 943 49 146 89 330 84 393 -2 29 -4 46 -5 40z m-932 -1134 c0 -30 5 -32 52
-29 38 2 43 -15 9 -39 -28 -21 -29 -21 -14 -62 18 -52 10 -60 -25 -26 -35 34
-49 34 -83 1 l-26 -25 4 25 c3 15 9 29 14 32 18 11 8 42 -18 60 l-28 19 40 5
c36 5 40 8 48 42 10 43 27 41 27 -3z m-366 -154 c7 -33 9 -35 46 -35 46 0 50
-11 15 -37 -23 -17 -25 -21 -14 -50 6 -18 9 -39 7 -48 -2 -12 -9 -10 -32 10
-35 30 -41 31 -74 4 -31 -24 -41 -10 -18 26 21 31 21 30 -11 60 l-28 25 37 0
c36 0 38 2 44 40 8 49 20 51 28 5z m-674 -520 c15 -18 6 -78 -14 -95 -8 -6
-36 -10 -63 -8 l-48 3 -3 43 c-2 24 2 50 9 58 16 19 103 19 119 -1z"/>
<path d="M2534 4525 c-10 -25 9 -37 52 -33 31 2 39 7 39 23 0 16 -8 21 -43 23
-32 2 -44 -1 -48 -13z"/>
<path d="M4275 6310 c-10 -11 -16 -22 -13 -25 3 -3 13 6 22 20 20 30 16 32 -9
5z"/>
<path d="M4337 6319 c-48 -28 -63 -136 -26 -183 11 -14 25 -26 30 -26 14 0 10
33 -6 54 -21 28 -19 82 5 106 24 24 41 25 85 4 62 -29 70 -111 13 -140 -33
-17 -33 -37 0 -42 24 -4 50 30 61 80 18 81 -35 158 -107 158 -20 0 -45 -5 -55
-11z"/>
<path d="M1340 6276 c-64 -22 -96 -38 -98 -49 -4 -21 10 -21 77 -1 29 8 55 13
58 11 2 -3 -21 -43 -52 -90 -77 -116 -66 -129 67 -80 84 30 93 36 85 57 -5 14
-14 13 -66 -6 -33 -12 -64 -19 -67 -15 -4 3 17 39 45 78 61 83 66 93 54 113
-7 13 -21 11 -103 -18z"/>
<path d="M4378 6236 l24 -13 -23 -14 c-19 -13 -20 -18 -9 -40 7 -13 14 -25 15
-27 8 -9 55 32 55 47 0 30 -30 61 -58 61 l-27 -1 23 -13z"/>
<path d="M4360 6080 c0 -5 5 -10 10 -10 6 0 10 5 10 10 0 6 -4 10 -10 10 -5 0
-10 -4 -10 -10z"/>
<path d="M4261 6044 c-51 -37 -68 -142 -30 -195 23 -32 67 -59 98 -59 33 0 77
46 91 95 11 39 10 51 -4 88 -28 71 -105 107 -155 71z m101 -63 c38 -34 44 -87
13 -121 -43 -47 -135 1 -135 72 0 77 62 103 122 49z"/>
<path d="M4278 5969 c-24 -13 -23 -40 3 -73 34 -43 79 -31 79 20 0 16 -44 64
-57 64 -4 0 -16 -5 -25 -11z"/>
<path d="M1405 5996 c-57 -31 -81 -49 -83 -65 -2 -11 1 -21 5 -21 5 0 51 21
102 46 67 33 91 50 89 62 -5 28 -30 23 -113 -22z"/>
<path d="M4129 5779 c-52 -56 -50 -144 4 -163 24 -9 31 -6 65 27 40 39 69 47
79 21 10 -27 -14 -64 -47 -71 -34 -6 -39 -35 -7 -41 24 -5 44 13 69 61 21 42
19 75 -8 101 -23 24 -40 20 -84 -20 -45 -41 -74 -42 -78 -2 -5 44 14 68 53 68
36 0 46 15 23 38 -19 19 -38 14 -69 -19z"/>
<path d="M4820 5806 c0 -2 7 -7 16 -10 8 -3 12 -2 9 4 -6 10 -25 14 -25 6z"/>
<path d="M727 5782 c-21 -10 -31 -11 -42 -2 -11 9 -16 6 -26 -12 -16 -33 -71
-88 -86 -88 -7 0 -13 -5 -13 -11 0 -16 -69 -163 -75 -158 -2 3 3 34 11 69 15
65 15 115 -1 75 -4 -11 -23 -63 -43 -115 -40 -108 -69 -158 -107 -188 -25 -20
-25 -21 -6 -31 25 -14 96 -14 120 -1 12 6 21 26 25 53 11 74 58 159 112 203
27 21 79 66 117 100 37 34 85 71 107 82 34 16 37 21 23 28 -29 13 -86 11 -116
-4z"/>
<path d="M4960 5792 c0 -6 -21 -9 -50 -8 l-51 3 66 -36 c95 -52 220 -171 257
-245 48 -95 79 -136 122 -161 55 -32 115 -41 141 -21 17 13 18 15 3 16 -26 0
-82 74 -113 148 -15 37 -34 80 -41 96 -8 16 -14 33 -14 37 0 4 -5 20 -10 35
-19 49 -19 19 0 -66 19 -84 19 -85 0 -60 -11 14 -27 45 -36 70 -9 25 -24 52
-33 61 -9 9 -38 42 -65 73 -32 36 -53 52 -60 47 -13 -11 -86 -3 -103 11 -9 7
-13 7 -13 0z"/>
<path d="M4157 5723 c-10 -9 -9 -23 2 -23 5 0 11 7 15 15 5 15 -5 20 -17 8z"/>
<path d="M4034 5627 c-3 -8 0 -25 5 -39 8 -22 5 -33 -21 -67 -22 -31 -35 -40
-47 -35 -29 12 -56 10 -56 -6 0 -17 173 -122 195 -118 26 5 22 44 -15 163 -33
108 -49 133 -61 102z m46 -162 c7 -25 11 -48 8 -50 -2 -2 -21 7 -41 21 -36 24
-37 25 -21 49 24 37 40 31 54 -20z"/>
<path d="M3839 5415 c-14 -7 -34 -32 -44 -55 -17 -38 -17 -43 -2 -75 19 -40
45 -45 101 -19 39 19 66 13 66 -14 0 -29 -35 -55 -64 -48 -29 7 -43 -9 -26
-29 21 -25 56 -17 89 20 36 42 41 85 11 115 -24 24 -32 24 -68 6 -53 -27 -70
-28 -81 -7 -24 45 31 97 77 72 26 -14 38 12 16 34 -19 18 -41 19 -75 0z"/>
<path d="M3845 5340 c-3 -5 1 -10 9 -10 8 0 18 5 21 10 3 6 -1 10 -9 10 -8 0
-18 -4 -21 -10z"/>
<path d="M2025 5240 c3 -5 17 -10 31 -10 13 0 24 5 24 10 0 6 -14 10 -31 10
-17 0 -28 -4 -24 -10z"/>
<path d="M1990 5126 c0 -3 15 -15 33 -27 l32 -23 -24 27 c-22 24 -41 35 -41
23z"/>
<path d="M1726 4704 c-3 -9 -6 -57 -6 -107 0 -56 -4 -87 -9 -81 -5 5 -29 45
-52 89 -24 44 -47 83 -53 87 -5 4 -16 -2 -24 -14 -17 -23 -8 -48 29 -90 13
-15 42 -62 64 -105 40 -77 68 -101 86 -71 10 15 12 268 3 292 -3 9 -12 16 -19
16 -7 0 -16 -7 -19 -16z"/>
<path d="M1882 4700 c-41 -25 -62 -73 -62 -140 0 -97 48 -160 122 -160 83 0
130 55 131 154 1 72 -19 118 -66 146 -41 25 -83 25 -125 0z m109 -49 c21 -17
24 -28 24 -89 0 -55 -4 -74 -19 -91 -41 -45 -112 -15 -123 51 -17 110 50 184
118 129z"/>
<path d="M1902 4618 c-17 -17 -15 -100 4 -126 20 -28 60 -29 75 -1 14 27 4 97
-18 121 -19 21 -44 23 -61 6z"/>
<path d="M2165 4712 c-81 -3 -88 -7 -75 -32 8 -14 21 -20 45 -20 l34 0 3 -127
c3 -120 4 -128 23 -128 19 0 20 8 23 128 l3 127 33 0 c18 0 38 6 44 13 26 31
-20 44 -133 39z"/>
<path d="M2346 4705 c-8 -21 -8 -268 0 -289 3 -9 15 -16 25 -16 19 0 19 8 17
157 -3 136 -5 158 -19 161 -9 2 -19 -4 -23 -13z"/>
<path d="M2842 4708 c-18 -24 -95 -275 -89 -291 11 -29 33 -19 50 23 15 38 17
40 59 40 52 0 62 -6 75 -45 11 -33 40 -45 49 -21 6 15 -53 207 -83 274 -16 33
-43 42 -61 20z m47 -122 c6 -25 11 -49 11 -55 0 -12 -59 -11 -66 1 -8 12 26
109 36 103 4 -2 13 -25 19 -49z"/>
<path d="M2860 4560 c0 -5 5 -10 11 -10 5 0 7 5 4 10 -3 6 -8 10 -11 10 -2 0
-4 -4 -4 -10z"/>
<path d="M3036 4705 c-12 -31 -7 -280 6 -293 19 -19 152 -16 168 3 20 24 2 34
-65 37 l-60 3 -5 130 c-4 109 -8 130 -21 133 -9 2 -19 -4 -23 -13z"/>
<path d="M3316 4683 c-29 -67 -87 -263 -81 -274 13 -20 38 -4 50 31 11 33 14
35 63 38 51 3 52 3 69 -35 23 -48 53 -57 53 -16 0 29 -76 259 -93 281 -18 23
-44 13 -61 -25z m58 -93 c19 -59 17 -67 -21 -66 -25 1 -28 5 -27 31 2 30 20
85 28 85 2 0 11 -23 20 -50z"/>
<path d="M4195 4711 c19 -8 19 -8 -3 -20 -17 -9 -22 -9 -22 1 -1 17 -50 -110
-50 -129 0 -8 5 -11 10 -8 6 3 10 -1 10 -10 0 -11 -5 -15 -15 -11 -12 4 -15
-3 -15 -34 0 -38 12 -52 25 -30 3 6 30 10 59 10 52 0 53 -1 71 -40 20 -43 26
-47 44 -26 9 10 4 33 -19 97 -17 46 -37 106 -45 132 -16 56 -31 77 -54 76 -12
0 -11 -2 4 -8z m22 -91 c3 -11 8 -20 12 -20 10 0 7 -64 -4 -72 -5 -4 -23 -8
-39 -8 -27 0 -28 1 -21 36 14 78 40 110 52 64z"/>
<path d="M3527 4703 c-4 -3 -7 -71 -7 -150 0 -122 2 -145 16 -150 23 -9 34 15
34 74 0 28 4 55 10 58 19 12 50 -16 82 -75 21 -38 40 -60 51 -60 26 0 22 50
-8 94 -31 45 -31 45 0 75 31 29 33 78 4 115 -19 24 -26 26 -98 26 -43 0 -81
-3 -84 -7z m137 -49 c35 -34 6 -74 -55 -74 -39 0 -39 0 -39 38 0 21 3 42 7 45
12 13 72 7 87 -9z"/>
<path d="M3600 4615 c0 -16 17 -19 44 -9 22 9 10 24 -20 24 -15 0 -24 -6 -24
-15z"/>
<path d="M3787 4703 c-10 -10 -8 -276 2 -292 5 -8 16 -11 25 -8 13 5 16 25 17
109 0 69 3 95 9 78 12 -36 38 -130 45 -162 4 -19 12 -28 25 -28 21 0 27 18 53
140 8 36 19 64 25 63 13 -3 26 47 14 59 -15 15 -44 -3 -39 -23 6 -21 -9 -26
-16 -6 -2 6 -10 -14 -16 -45 -17 -81 -29 -77 -46 12 -19 102 -24 110 -59 110
-18 0 -36 -3 -39 -7z"/>
<path d="M3740 4525 c-11 -20 -10 -29 3 -57 l17 -33 0 58 c0 31 -1 57 -3 57
-2 0 -10 -11 -17 -25z"/>
<path d="M4480 4299 c-113 -73 -164 -104 -192 -119 -16 -7 -28 -22 -28 -32 0
-20 1 -20 135 -19 123 1 275 13 275 21 0 19 -98 185 -111 188 -8 1 -43 -16
-79 -39z"/>
</g>
</svg>
